<svg width="78" height="86" viewBox="0 0 78 36" fill="none" xmlns="http://www.w3.org/2000/svg">
<path d="M0.848 35V30.68H12.8C14.336 30.68 15.504 30.232 16.304 29.336C17.104 28.408 17.504 27.16 17.504 25.592V1.496H22.592V25.352C22.592 26.888 22.384 28.264 21.968 29.48C21.552 30.664 20.928 31.672 20.096 32.504C19.296 33.304 18.272 33.928 17.024 34.376C15.808 34.792 14.384 35 12.752 35H0.848ZM4.736 1.496H22.208V5.816H4.736V1.496Z" fill="#F87171"/>
<path d="M43.2988 35.576C40.7068 35.576 38.4508 35.08 36.5308 34.088C34.6108 33.096 33.1228 31.672 32.0668 29.816C31.0108 27.96 30.4828 25.704 30.4828 23.048H35.5228C35.5228 25.672 36.2108 27.704 37.5868 29.144C38.9628 30.552 40.8508 31.256 43.2508 31.256C45.2988 31.256 46.9468 30.792 48.1948 29.864C49.4428 28.904 50.0668 27.576 50.0668 25.88C50.0668 24.728 49.7148 23.8 49.0108 23.096C48.3388 22.392 47.4268 21.816 46.2748 21.368C45.1548 20.92 43.9228 20.52 42.5788 20.168C41.2348 19.816 39.8748 19.432 38.4988 19.016C37.1548 18.568 35.9068 18.008 34.7548 17.336C33.6348 16.664 32.7228 15.768 32.0188 14.648C31.3468 13.528 31.0108 12.104 31.0108 10.376C31.0108 8.552 31.4908 6.936 32.4508 5.528C33.4428 4.088 34.8028 2.968 36.5308 2.168C38.2908 1.336 40.3548 0.919998 42.7228 0.919998C45.0268 0.919998 47.0908 1.352 48.9148 2.216C50.7388 3.048 52.1948 4.248 53.2828 5.816C54.4028 7.352 54.9788 9.208 55.0108 11.384H49.9228C49.8908 10.104 49.5388 9.016 48.8668 8.12C48.2268 7.192 47.3628 6.488 46.2748 6.008C45.2188 5.496 44.0348 5.24 42.7228 5.24C40.8348 5.24 39.2988 5.688 38.1148 6.584C36.9308 7.48 36.3388 8.696 36.3388 10.232C36.3388 11.32 36.6748 12.184 37.3468 12.824C38.0508 13.464 38.9628 13.992 40.0828 14.408C41.2348 14.792 42.4828 15.16 43.8268 15.512C45.2028 15.832 46.5628 16.216 47.9068 16.664C49.2508 17.08 50.4828 17.656 51.6028 18.392C52.7548 19.096 53.6668 20.056 54.3387 21.272C55.0428 22.456 55.3948 23.976 55.3948 25.832C55.3948 27.816 54.8668 29.544 53.8108 31.016C52.7548 32.456 51.3148 33.576 49.4908 34.376C47.6668 35.176 45.6028 35.576 43.2988 35.576ZM71.0615 35V29.048H77.0135V35H71.0615Z" fill="black"/>
</svg>
